<?xml version="1.0" standalone="no"?>
<!DOCTYPE svg PUBLIC "-//W3C//DTD SVG 20010904//EN"
 "http://www.w3.org/TR/2001/REC-SVG-20010904/DTD/svg10.dtd">
<svg version="1.0" xmlns="http://www.w3.org/2000/svg"
 width="200.000000pt" height="200.000000pt" viewBox="0 0 200.000000 200.000000"
 preserveAspectRatio="xMidYMid meet">
<metadata>
Created by potrace 1.14, written by Peter Selinger 2001-2017
</metadata>
<g transform="translate(0.000000,200.000000) scale(0.100000,-0.100000)"
fill="#000000" stroke="none">
<path d="M163 1513 l-53 -16 0 -53 0 -54 73 0 72 0 0 -422 0 -422 53 -2 52 -2
0 31 c1 55 1 890 1 925 l-1 32 -72 -1 c-40 0 -97 -8 -125 -16z"/>
<path d="M653 1522 c-48 -7 -53 -31 -53 -250 0 -265 -12 -249 196 -251 168 -2
196 -11 226 -71 24 -46 25 -197 3 -240 -29 -56 -60 -63 -260 -65 l-180 0 -1
-47 c0 -34 4 -48 15 -50 37 -9 382 1 413 11 61 20 112 78 123 141 11 55 8 224
-5 268 -14 52 -51 97 -104 124 -36 18 -59 21 -178 21 -76 0 -139 3 -139 6 -1
3 -2 75 -3 159 l-2 152 31 1 c16 0 113 1 215 2 l185 2 0 45 0 45 -230 0 c-127
0 -240 -1 -252 -3z"/>
<path d="M1464 1519 c-46 -9 -87 -37 -114 -77 -25 -36 -25 -41 -25 -234 0
-184 1 -198 21 -225 44 -59 74 -67 234 -67 116 0 152 3 179 17 l33 17 -4 -125
c-7 -179 -9 -181 -252 -184 -93 -1 -173 -4 -176 -6 -9 -6 -11 -85 -2 -86 38
-7 376 -5 404 2 47 12 97 54 115 97 11 26 15 112 19 365 3 183 2 351 -1 375
-8 54 -62 117 -108 128 -40 9 -283 12 -323 3z m281 -113 c43 -28 49 -53 49
-191 1 -189 -14 -205 -198 -205 -156 0 -167 14 -167 212 0 136 9 174 47 193
34 17 239 10 269 -9z"/>
</g>
</svg>
